<svg
  width="55"
  height="48"
  viewBox="0 0 55 48"
  fill="none"
  xmlns="http://www.w3.org/2000/svg"
>
  <mask
    id="mask0_22_685"
    style="mask-type:alpha"
    maskUnits="userSpaceOnUse"
    x="0"
    y="0"
    width="55"
    height="48"
  >
    <path
      d="M27.1637 0C25.0205 0 23.2832 1.77118 23.2832 3.95604C23.2832 6.14089 25.0205 7.91209 27.1637 7.91209H43.9793V7.91219C43.9879 7.91214 43.9965 7.91209 44.0052 7.91209C45.7911 7.91209 47.2389 9.38806 47.2389 11.2088C47.2389 13.0295 45.7911 14.5055 44.0052 14.5055C43.9965 14.5055 43.9879 14.5054 43.9793 14.5054V14.5055H15.5221C10.3785 14.5055 6.20884 18.7563 6.20884 24C6.20884 29.2437 10.3785 33.4945 15.5221 33.4945H36.2183V33.4946C36.2251 33.4946 36.232 33.4945 36.2388 33.4945H36.2441C38.0301 33.4945 39.4779 34.9705 39.4779 36.7912C39.4779 38.6119 38.0301 40.0879 36.2441 40.0879C36.2355 40.0879 36.2269 40.0879 36.2183 40.0878V40.0879H3.88053C1.73737 40.0879 0 41.8591 0 44.044C0 46.2288 1.73737 48 3.88053 48H37.3176C42.8861 47.4486 47.2389 42.6526 47.2389 36.8176C47.2389 30.6126 42.3164 25.5824 36.2441 25.5824H15.5221V25.5816C14.6888 25.5537 14.0216 24.8563 14.0216 24C14.0216 23.1437 14.6888 22.4463 15.5221 22.4184V22.4176H45.0787C50.6471 21.8662 55 17.0702 55 11.2352C55 5.03018 50.0774 0 44.0052 0H27.1637Z"
      fill="#C4C4C4"></path>
    <path
      d="M7.76099 3.95604C7.76099 1.77118 9.49838 0 11.6415 0H16.8155C18.9587 0 20.6961 1.77118 20.6961 3.95604C20.6961 6.14089 18.9587 7.91209 16.8155 7.91209H11.6415C9.49838 7.91209 7.76099 6.14089 7.76099 3.95604Z"
      fill="#C4C4C4"></path>
  </mask>
  <g mask="url(#mask0_22_685)">
    <path
      fill-rule="evenodd"
      clip-rule="evenodd"
      d="M36.2441 48C39.4953 48 42.4168 46.558 44.4298 44.2658C46.4456 36.3233 40.0582 33.7753 36.6063 33.4945L36.5066 33.5052C38.1698 33.6414 39.4779 35.0606 39.4779 36.7912C39.4779 38.6119 38.0301 40.0879 36.2441 40.0879C36.2355 40.0879 36.2269 40.0879 36.2183 40.0878V40.0879H21.2337H3.88053C1.73737 40.0879 0 41.8591 0 44.044C0 46.2288 1.73737 48 3.88053 48H30.5845H36.2441Z"
      fill="url(#paint0_linear_22_685)"></path>
    <path
      fill-rule="evenodd"
      clip-rule="evenodd"
      d="M14.5357 22.8235L9.20037 17.0277C7.36064 18.7621 6.20874 21.244 6.20874 24C6.20874 29.2436 10.3784 33.4945 15.522 33.4945H36.2181V33.4946C36.225 33.4945 36.2319 33.4945 36.2387 33.4945H36.244C36.3079 33.4945 36.3713 33.4964 36.4342 33.5001C36.4398 33.4982 36.4454 33.4963 36.451 33.4945C44.903 34.4665 45.4496 40.6455 44.4312 44.3169C46.1769 42.3282 47.2388 39.6996 47.2388 36.8176C47.2388 30.6126 42.3163 25.5824 36.244 25.5824H15.522V25.5816C14.6887 25.5537 14.0215 24.8563 14.0215 24C14.0215 23.5329 14.22 23.1132 14.5357 22.8235Z"
      fill="url(#paint1_linear_22_685)"></path>
    <path
      fill-rule="evenodd"
      clip-rule="evenodd"
      d="M51.0875 2.64111C46.4642 3.46624 36.4791 5.36842 27.3426 7.9121H43.9793V7.9122C43.984 7.91215 43.9887 7.91215 43.9935 7.9121C43.9973 7.9121 44.0012 7.9121 44.0052 7.9121C45.7911 7.9121 47.2389 9.38807 47.2389 11.2088C47.2389 13.0295 45.7911 14.5055 44.0052 14.5055C44.0005 14.5055 43.9957 14.5055 43.991 14.5054C43.9871 14.5054 43.9832 14.5054 43.9793 14.5054V14.5055H15.5221C12.7365 14.5055 10.2365 15.7523 8.52977 17.7283C7.55612 24.4156 12.4872 25.3477 15.4584 25.5815L15.4785 25.5794C14.6656 25.5293 14.0216 24.8413 14.0216 24C14.0216 23.1437 14.6887 22.4462 15.5221 22.4184V22.4176H45.0787C50.6471 21.8662 55 17.0702 55 11.2352C55 7.78724 53.4799 4.70207 51.0875 2.64111Z"
      fill="url(#paint2_linear_22_685)"></path>
    <path
      d="M44.2677 14.4948C45.9309 14.3586 47.239 12.9394 47.239 11.2088C47.239 9.38806 45.7912 7.91209 44.0052 7.91209C43.9966 7.91209 43.988 7.91214 43.9793 7.91219V7.91209H27.1637C25.0206 7.91209 23.2832 6.14089 23.2832 3.95604C23.2832 1.77118 25.0206 0 27.1637 0H44.0052C47.2564 0 50.1779 1.44198 52.1911 3.73422C54.2069 11.6767 47.8193 14.2247 44.3674 14.5055L44.2677 14.4948Z"
      fill="url(#paint3_linear_22_685)"></path>
    <path
      d="M7.76099 3.95604C7.76099 1.77118 9.49838 0 11.6415 0H16.8155C18.9587 0 20.6961 1.77118 20.6961 3.95604C20.6961 6.14089 18.9587 7.91209 16.8155 7.91209H11.6415C9.49838 7.91209 7.76099 6.14089 7.76099 3.95604Z"
      fill="url(#paint4_linear_22_685)"></path>
  </g>
  <defs>
    <linearGradient
      id="paint0_linear_22_685"
      x1="-10.4774"
      y1="62.6374"
      x2="40.2651"
      y2="39.2324"
      gradientUnits="userSpaceOnUse"
    >
      <stop stop-color="#244DDF"></stop>
      <stop offset="1" stop-color="#95AAF5"></stop>
    </linearGradient>
    <linearGradient
      id="paint1_linear_22_685"
      x1="47.4975"
      y1="39.534"
      x2="20.8566"
      y2="23.3519"
      gradientUnits="userSpaceOnUse"
    >
      <stop stop-color="#244DDF"></stop>
      <stop offset="1" stop-color="#95AAF5"></stop>
    </linearGradient>
    <linearGradient
      id="paint2_linear_22_685"
      x1="8.41325"
      y1="31.621"
      x2="35.7623"
      y2="11.3358"
      gradientUnits="userSpaceOnUse"
    >
      <stop stop-color="#244DDF"></stop>
      <stop offset="1" stop-color="#95AAF5"></stop>
    </linearGradient>
    <linearGradient
      id="paint3_linear_22_685"
      x1="52.5682"
      y1="18.2505"
      x2="34.8753"
      y2="-0.477539"
      gradientUnits="userSpaceOnUse"
    >
      <stop stop-color="#244DDF"></stop>
      <stop offset="1" stop-color="#95AAF5"></stop>
    </linearGradient>
    <linearGradient
      id="paint4_linear_22_685"
      x1="52.5681"
      y1="18.2506"
      x2="34.8752"
      y2="-0.477538"
      gradientUnits="userSpaceOnUse"
    >
      <stop stop-color="#244DDF"></stop>
      <stop offset="1" stop-color="#95AAF5"></stop>
    </linearGradient>
  </defs>
</svg>
